#!OML:ASF H:\MichaelJackson\Top Level 1\Subject 1\Session 1\male.ASF
:FULLY-SPECIFIED
:DEGREES
1329
root 5.98907 16.7585 19.3408 -349.503 -4.89916 -3.68158
lowerback 0.644835 1.32888 -1.48263
upperback -0.119414 1.78237 3.914
thorax -0.655117 0.906691 4.84455
lowerneck -7.68631 -6.91971 -1.65094
upperneck 16.0336 -9.22431 0.116154
head 6.20953 -4.55336 -0.397929
rclavicle -2.9122e-014 -2.70347e-014
rhumerus -220.767 171.444 -260.402
rradius 92.1132
rwrist 2.44115
rhand 6.88615 -18.8191
rfingers 7.12502
rthumb 32.1673 -405.991
lclavicle -2.9122e-014 -2.70347e-014
lhumerus -76.5281 -9.87914 105.443
lradius 77.5471
lwrist 15.073
lhand 1.27553 18.9214
lfingers 7.12502
lthumb 26.8115 47.0409
rfemur -37.2182 -18.9538 26.2644
rtibia 65.7008
rfoot 6.32339 26.7405
rtoes 18.677
lfemur -23.0288 1.26973 -18.0753
ltibia 42.4707
lfoot -24.6036 -1.90019
ltoes 32.8867
1330
root 5.97912 16.7564 19.3506 -349.59 -5.04011 -3.20321
lowerback 0.911946 1.2906 -1.91396
upperback -0.0480191 1.72594 3.87599
thorax -0.737944 0.880357 5.04603
lowerneck -7.61086 -6.96506 -1.68928
upperneck 15.959 -9.27441 0.0806923
head 6.17351 -4.58356 -0.402013
rclavicle 2.05742e-014 1.51076e-014
rhumerus -221.182 171.187 -260.769
rradius 93.4408
rwrist 1.52638
rhand 12.3782 -20.0827
rfingers 7.12502
rthumb 37.3783 -406.048
lclavicle 2.05742e-014 1.51076e-014
lhumerus -77.8859 -10.5714 105.795
lradius 80.1954
lwrist 15.0189
lhand 2.52467 19.9865
lfingers 7.12502
lthumb 28.0063 47.9168
rfemur -39.3458 -19.5213 25.6681
rtibia 68.0577
rfoot 10.0854 27.1788
rtoes 18.065
lfemur -22.7064 1.77717 -18.5866
ltibia 41.9735
lfoot -24.5374 -2.39152
ltoes 32.91
1331
root 5.96809 16.7557 19.3604 -349.683 -5.19375 -2.75736
lowerback 1.17602 1.26698 -2.31114
upperback 0.0248588 1.68716 3.84419
thorax -0.81787 0.862766 5.23498
lowerneck -7.52166 -7.0173 -1.74212
upperneck 15.8927 -9.33438 0.0573217
head 6.13917 -4.61842 -0.400464
rclavicle 7.7526e-015 -3.26007e-014
rhumerus -221.603 170.938 -261.12
rradius 94.8601
rwrist 0.619417
rhand 17.7831 -21.2117
rfingers 7.12502
rthumb 42.4646 -405.644
lclavicle 7.7526e-015 -3.26007e-014
lhumerus -79.236 -11.2579 106.053
lradius 82.8355
lwrist 14.7902
lhand 3.83571 20.9593
lfingers 7.12502
lthumb 29.2588 48.6782
rfemur -41.4044 -20.0151 25.1047
rtibia 70.2353
rfoot 13.0688 27.4326
rtoes 16.5735
lfemur -22.3882 2.27956 -19.0618
ltibia 41.5019
lfoot -24.452 -2.86729
ltoes 32.9994
1332
root 5.95629 16.7561 19.3705 -349.784 -5.35802 -2.34944
lowerback 1.43413 1.25864 -2.66444
upperback 0.106598 1.66725 3.82109
thorax -0.885958 0.854127 5.40834
lowerneck -7.43489 -7.07518 -1.8015
upperneck 15.8388 -9.40133 0.033282
head 6.10965 -4.65689 -0.398991
rclavicle 8.15017e-015 9.54166e-015
rhumerus -222.019 170.687 -261.455
rradius 96.3284
rwrist -0.248138
rhand 22.9479 -22.0844
rfingers 7.12502
rthumb 47.2707 -404.63
lclavicle 8.15017e-015 9.54166e-015
lhumerus -80.5517 -11.9397 106.215
lradius 85.4218
lwrist 14.4106
lhand 5.20081 21.8292
lfingers 7.12502
lthumb 30.5615 49.3134
rfemur -43.3753 -20.4484 24.5841
rtibia 72.2406
rfoot 15.0728 27.4895
rtoes 14.4317
lfemur -22.0725 2.74842 -19.4957
ltibia 41.0651
lfoot -24.3541 -3.27428
ltoes 33.0731
1333
root 5.94456 16.7578 19.3812 -349.915 -5.48466 -1.97734
lowerback 1.70464 1.24944 -2.9551
upperback 0.204782 1.64514 3.80958
thorax -0.942069 0.843515 5.55846
lowerneck -7.36416 -7.13691 -1.86457
upperneck 15.8022 -9.47129 -0.00245631
head 6.088 -4.69762 -0.401812
rclavicle -1.96797e-014 -4.77083e-015
rhumerus -222.415 170.427 -261.765
rradius 97.82
rwrist -1.13851
rhand 27.735 -22.6318
rfingers 7.12502
rthumb 51.6595 -402.937
lclavicle -1.96797e-014 -4.77083e-015
lhumerus -81.81 -12.6122 106.281
lradius 87.9129
lwrist 13.9311
lhand 6.57144 22.5456
lfingers 7.12502
lthumb 31.8677 49.778
rfemur -45.223 -20.8738 24.1036
rtibia 74.0796
rfoot 16.0407 27.2693
rtoes 12.0463
lfemur -21.7351 3.11858 -19.8832
ltibia 40.6602
lfoot -24.2414 -3.59611
ltoes 33.1552
1334
root 5.93324 16.7609 19.3928 -350.061 -5.56507 -1.63637
lowerback 1.97167 1.23415 -3.18307
upperback 0.316323 1.61459 3.81043
thorax -0.979739 0.827636 5.68659
lowerneck -7.32038 -7.20057 -1.9298
upperneck 15.7867 -9.5406 -0.0566598
head 6.07683 -4.73913 -0.411529
rclavicle -6.16232e-015 -2.38542e-014
rhumerus -222.775 170.162 -262.047
rradius 99.3269
rwrist -2.21065
rhand 31.8839 -22.8224
rfingers 7.12502
rthumb 55.3922 -400.673
lclavicle -6.16232e-015 -2.38542e-014
lhumerus -82.996 -13.2695 106.253
lradius 90.2907
lwrist 13.4188
lhand 7.8893 23.0784
lfingers 7.12502
lthumb 33.1218 50.0528
rfemur -46.9672 -21.3057 23.6697
rtibia 75.7555
rfoot 16.0335 26.6819
rtoes 9.81119
lfemur -21.3882 3.3654 -20.2293
ltibia 40.2785
lfoot -24.1222 -3.80603
ltoes 33.1799
1335
root 5.92212 16.7653 19.4053 -350.213 -5.64869 -1.33435
lowerback 2.23047 1.22931 -3.35434
upperback 0.437865 1.59831 3.82402
thorax -1.00276 0.818019 5.79573
lowerneck -7.29874 -7.26728 -1.99121
upperneck 15.7889 -9.61092 -0.133161
head 6.07379 -4.78228 -0.430127
rclavicle -3.57812e-015 1.51076e-014
rhumerus -223.094 169.925 -262.295
rradius 100.861
rwrist -3.61168
rhand 35.3587 -22.7889
rfingers 7.12502
rthumb 58.4492 -398.1
lclavicle -3.57812e-015 1.51076e-014
lhumerus -84.1129 -13.909 106.141
lradius 92.5522
lwrist 12.9664
lhand 9.10429 23.467
lfingers 7.12502
lthumb 34.2763 50.189
rfemur -48.6217 -21.7021 23.2925
rtibia 77.2601
rfoot 15.2647 25.6319
rtoes 7.96491
lfemur -21.0263 3.51712 -20.5328
ltibia 39.9047
lfoot -24.0024 -3.88822
ltoes 33.1325
1336
root 5.91167 16.7712 19.4192 -350.369 -5.70087 -1.0572
lowerback 2.47918 1.21826 -3.47274
upperback 0.567225 1.57447 3.851
thorax -1.00982 0.803734 5.88951
lowerneck -7.31017 -7.33466 -2.0611
upperneck 15.8136 -9.67848 -0.223941
head 6.08319 -4.82525 -0.453575
rclavicle -2.42517e-014 -2.94201e-014
rhumerus -223.345 169.73 -262.49
rradius 102.428
rwrist -5.48938
rhand 38.1852 -22.6828
rfingers 7.12502
rthumb 60.8745 -395.511
lclavicle -2.42517e-014 -2.94201e-014
lhumerus -85.1573 -14.5206 105.961
lradius 94.6992
lwrist 12.6572
lhand 10.1564 23.7376
lfingers 7.12502
lthumb 35.2747 50.2291
rfemur -50.1881 -22.1044 22.9646
rtibia 78.5739
rfoot 13.962 24.0996
rtoes 6.46508
lfemur -20.6476 3.54194 -20.8045
ltibia 39.5238
lfoot -23.8814 -3.86245
ltoes 33.0334
1337
root 5.90199 16.7789 19.4349 -350.526 -5.71967 -0.800044
lowerback 2.72471 1.19959 -3.54157
upperback 0.694413 1.54146 3.88616
thorax -1.01486 0.784578 5.96414
lowerneck -7.33063 -7.40597 -2.13272
upperneck 15.8521 -9.74988 -0.322634
head 6.09823 -4.87066 -0.480267
rclavicle -1.51076e-014 -6.04305e-014
rhumerus -223.528 169.612 -262.626
rradius 104.033
rwrist -7.92714
rhand 40.3864 -22.5883
rfingers 7.12502
rthumb 62.7147 -393.163
lclavicle -1.51076e-014 -6.04305e-014
lhumerus -86.1505 -15.1067 105.733
lradius 96.7463
lwrist 12.5543
lhand 11.0109 23.9329
lfingers 7.12502
lthumb 36.0845 50.2286
rfemur -51.6621 -22.518 22.6752
rtibia 79.6705
rfoot 12.4563 22.0718
rtoes 5.43503
lfemur -20.2455 3.4483 -21.0503
ltibia 39.1209
lfoot -23.7529 -3.73651
ltoes 32.8948
1338
root 5.89262 16.7887 19.4524 -350.66 -5.7639 -0.570572
lowerback 2.93988 1.18942 -3.57698
upperback 0.816359 1.52128 3.93197
thorax -1.0092 0.771554 6.03102
lowerneck -7.36538 -7.48086 -2.21516
upperneck 15.9032 -9.82552 -0.415171
head 6.12065 -4.91815 -0.504743
rclavicle -1.03368e-014 2.78299e-014
rhumerus -223.621 169.595 -262.685
rradius 105.664
rwrist -10.9395
rhand 42.1086 -22.5534
rfingers 7.12502
rthumb 64.1184 -391.133
lclavicle -1.03368e-014 2.78299e-014
lhumerus -87.0951 -15.6632 105.474
lradius 98.7113
lwrist 12.6892
lhand 11.6528 24.0981
lfingers 7.12502
lthumb 36.6923 50.2415
rfemur -53.0739 -22.8788 22.4302
rtibia 80.5211
rfoot 11.0422 19.6325
rtoes 4.80446
lfemur -19.836 3.29213 -21.2719
ltibia 38.6834
lfoot -23.6159 -3.52192
ltoes 32.7386
